<svg width="11" height="10" viewBox="0 0 11 10" fill="none" xmlns="http://www.w3.org/2000/svg">
<path fill-rule="evenodd" clip-rule="evenodd" d="M5.12578 0C2.29386 0 0 2.29386 0 5.12578C0 7.39132 1.46945 9.31073 3.50529 9.9904C3.76017 10.0376 3.85456 9.88027 3.85456 9.74182C3.85456 9.6191 3.85142 9.29815 3.84827 8.87021C2.42287 9.17858 2.1208 8.18426 2.1208 8.18426C1.88795 7.5927 1.55126 7.43223 1.55126 7.43223C1.08557 7.11442 1.58588 7.12071 1.58588 7.12071C2.09877 7.15847 2.37252 7.64934 2.37252 7.64934C2.82878 8.43284 3.57137 8.20628 3.864 8.07413C3.9112 7.74374 4.04336 7.51718 4.1881 7.38817C3.05218 7.26231 1.85648 6.82179 1.85648 4.85832C1.85648 4.29823 2.05472 3.84198 2.38511 3.48327C2.33162 3.35111 2.15541 2.83192 2.43231 2.12709C2.43231 2.12709 2.86339 1.98864 3.84198 2.65257C4.25103 2.53929 4.68841 2.48265 5.12578 2.47951C5.56001 2.48265 6.00053 2.53929 6.40959 2.65257C7.38817 1.98864 7.81926 2.12709 7.81926 2.12709C8.0993 2.83192 7.92309 3.35426 7.8696 3.48327C8.19685 3.84198 8.39508 4.29823 8.39508 4.85832C8.39508 6.82808 7.19623 7.25916 6.05402 7.38817C6.23652 7.5455 6.40329 7.86016 6.40329 8.33844C6.40329 9.0244 6.397 9.57505 6.397 9.74496C6.397 9.88341 6.48825 10.0407 6.74942 9.9904C8.78526 9.31073 10.2516 7.39132 10.2516 5.12893C10.2516 2.29386 7.95771 0 5.12578 0Z" fill="#545454"/>
</svg>
