<svg xmlns="http://www.w3.org/2000/svg" enable-background="new 0 0 24 24" viewBox="0 0 24 24"><path fill="#545454" d="M4.473 17.716c-.078 0-.158-.012-.236-.038-.394-.131-.606-.556-.476-.948l.538-1.619c-.937.648-2.005 1.1-2.802 1.007C1.146 16.079 0 15.822 0 14.167 0 10.011 3.46 4.5 6.068 4.5c1.991 0 2.714 1.496 2.714 2.502 0 .414-.336.75-.75.75-.411 0-.745-.332-.75-.742C7.273 6.706 7.138 6 6.068 6 4.743 6 1.5 10.359 1.5 14.167c0 .441.11.454.163.459.957.114 3.134-1.639 3.285-2.304C5.2 11.211 6.135 9.5 6.241 9.309c.188-.34.604-.479.957-.324C7.554 9.14 7.731 9.54 7.609 9.908l-2.425 7.295C5.08 17.518 4.787 17.716 4.473 17.716zM11.549 15.913c-.331 0-.629-.156-.818-.428-.122-.175-.192-.423-.212-.744-.681.737-1.431 1.239-2.157 1.163-.452-.048-.81-.288-1.008-.676-.623-1.221.785-3.921 1.419-5.026.206-.358.665-.483 1.023-.277.359.206.483.665.277 1.023-.753 1.313-1.354 2.814-1.392 3.423.592-.283 1.904-1.998 2.929-4.123.175-.36.601-.52.971-.363.368.157.548.577.407.952-.488 1.307-.876 2.704-.973 3.438.408-.198.872-.574 1.14-.854.286-.3.761-.311 1.061-.023.299.287.31.761.023 1.061-.231.242-1.448 1.448-2.687 1.454C11.552 15.913 11.551 15.913 11.549 15.913zM8.696 14.561h.01H8.696z"/><path fill="#545454" d="M14.378,16.121c-0.066,0-0.134-0.003-0.202-0.008c-0.438-0.035-0.796-0.263-1.009-0.642c-0.939-1.667,1.664-7.245,2.826-9.566C16.179,5.536,16.63,5.385,17,5.57s0.521,0.636,0.335,1.006c-1.779,3.55-3.051,7.109-2.894,8.041c1.113-0.077,2.303-1.982,2.721-2.939c0.167-0.381,0.61-0.553,0.988-0.386c0.379,0.166,0.553,0.608,0.387,0.988C18.36,12.683,16.785,16.12,14.378,16.121z M14.476,14.738h0.01H14.476z"/><path fill="#545454" d="M14.904,19.5c-0.092,0-0.184-0.017-0.274-0.052c-0.38-0.149-0.571-0.576-0.429-0.959c0.137-0.37,0.43-1.127,0.846-2.042l2.438-5.886c0.159-0.383,0.599-0.564,0.98-0.406c0.264,0.109,0.433,0.353,0.459,0.618c0.595-0.446,1.224-0.718,1.872-0.718c0.771,0,1.271,0.253,1.488,0.753c0.407,0.938-0.54,2.023-1.701,3.271c0.897-0.567,1.742-1.451,2.086-1.872c0.261-0.323,0.736-0.369,1.055-0.108c0.321,0.262,0.369,0.734,0.107,1.055c-0.276,0.339-2.761,3.299-5.121,2.905c-0.331-0.055-0.591-0.268-0.693-0.57c-0.215-0.63,0.285-1.165,1.28-2.231c0.395-0.423,1.131-1.211,1.441-1.701c-1.353,0.08-3.142,2.925-4.375,5.63l-0.766,1.849C15.478,19.325,15.198,19.5,14.904,19.5z"/></svg>