<svg width="21" height="20" viewBox="0 0 21 20" fill="none" xmlns="http://www.w3.org/2000/svg">
<path d="M10.9943 3.44539e-08C9.01645 3.44539e-08 7.08306 0.58649 5.43856 1.6853C3.79407 2.78412 2.51235 4.3459 1.75547 6.17317C0.998596 8.00043 0.800562 10.0111 1.18641 11.9509C1.57227 13.8907 2.52467 15.6725 3.9232 17.0711C5.32172 18.4696 7.10355 19.422 9.04336 19.8079C10.9832 20.1937 12.9938 19.9957 14.8211 19.2388C16.6484 18.4819 18.2101 17.2002 19.309 15.5557C20.4078 13.9112 20.9943 11.9778 20.9943 10C20.9944 8.68675 20.7358 7.38634 20.2333 6.17304C19.7308 4.95973 18.9942 3.8573 18.0656 2.92869C17.137 2.00008 16.0345 1.26349 14.8212 0.760983C13.6079 0.258474 12.3075 -0.000108979 10.9943 3.44539e-08ZM14.1738 15.1525C14.1363 15.2458 14.0794 15.33 14.0067 15.3996C13.9341 15.4691 13.8474 15.5223 13.7525 15.5556C13.6576 15.5889 13.5567 15.6015 13.4566 15.5926C13.3564 15.5837 13.2593 15.5535 13.1718 15.504L10.4571 13.3946L8.71479 15.002C8.67436 15.0319 8.62707 15.0511 8.57726 15.0579C8.52746 15.0647 8.47675 15.0589 8.42979 15.0409L8.76379 12.0525L8.77448 12.061L8.78131 12.002C8.78131 12.002 13.6663 7.55445 13.8653 7.36496C14.0668 7.17596 14.0003 7.13496 14.0003 7.13496C14.0118 6.90443 13.6388 7.13496 13.6388 7.13496L7.16627 11.299L4.47078 10.381C4.47078 10.381 4.05678 10.2325 4.01778 9.906C3.97678 9.582 4.48427 9.406 4.48427 9.406L15.2013 5.14849C15.2013 5.14849 16.0823 4.75597 16.0823 5.406L14.1738 15.1525Z" fill="url(#paint0_linear_39_3)"/>
<defs>
<linearGradient id="paint0_linear_39_3" x1="4" y1="2.5" x2="17.5" y2="16.5" gradientUnits="userSpaceOnUse">
<stop offset="0.0135415" stop-color="#FFCBCD"/>
<stop offset="1" stop-color="#99E6E6"/>
</linearGradient>
</defs>
</svg>
